<?xml version="1.0" encoding="utf-8"?>
<!-- Generator: Adobe Illustrator 24.0.2, SVG Export Plug-In . SVG Version: 6.00 Build 0)  -->
<svg version="1.2" baseProfile="tiny" id="Layer_1" focusable="false"
	 xmlns="http://www.w3.org/2000/svg" xmlns:xlink="http://www.w3.org/1999/xlink" x="0px" y="0px" viewBox="0 0 640 512"
	 xml:space="preserve">
<path fill="#999999" d="M624,352h-16V243.9c0-12.7-5.1-24.9-14.1-33.9L494,110.1c-9-9-21.2-14.1-33.9-14.1H416V48
	c0-26.5-21.5-48-48-48H48C21.5,0,0,21.5,0,48v320c0,26.5,21.5,48,48,48h16c0,53,43,96,96,96s96-43,96-96h128c0,53,43,96,96,96
	s96-43,96-96h48c8.8,0,16-7.2,16-16v-32C640,359.2,632.8,352,624,352z M160,464c-26.5,0-48-21.5-48-48s21.5-48,48-48s48,21.5,48,48
	S186.5,464,160,464z M304,216c0,4.4-3.6,8-8,8h-56v56c0,4.4-3.6,8-8,8h-48c-4.4,0-8-3.6-8-8v-56h-56c-4.4,0-8-3.6-8-8v-48
	c0-4.4,3.6-8,8-8h56v-56c0-4.4,3.6-8,8-8h48c4.4,0,8,3.6,8,8v56h56c4.4,0,8,3.6,8,8V216z M480,464c-26.5,0-48-21.5-48-48
	s21.5-48,48-48s48,21.5,48,48S506.5,464,480,464z M560,256H416V144h44.1l99.9,99.9V256z"/>
</svg>
