<?xml version="1.0" encoding="utf-8"?>
<!-- Generator: Adobe Illustrator 24.0.2, SVG Export Plug-In . SVG Version: 6.00 Build 0)  -->
<svg version="1.2" baseProfile="tiny" id="Layer_1" focusable="false"
	 xmlns="http://www.w3.org/2000/svg" xmlns:xlink="http://www.w3.org/1999/xlink" x="0px" y="0px" viewBox="0 0 512 512"
	 xml:space="preserve">
<path fill="#999999" d="M256,8C118.9,8,8,118.9,8,256c0,137.1,110.9,248,248,248c48.2,0,95.3-14.1,135.4-40.2
	c12-7.8,14.6-24.3,5.6-35.4L386.8,416c-7.7-9.4-21.2-11.7-31.4-5.1C325.9,429.8,291.3,440,256,440c-101.5,0-184-82.5-184-184
	S154.5,72,256,72c100.1,0,184,57.6,184,160c0,38.8-21.1,79.7-58.2,83.7c-17.3-0.5-16.9-12.9-13.5-30l23.4-121.1
	c2.9-14.8-8.5-28.6-23.6-28.6h-45c-6.9,0-12.7,5.2-13.4,12l0,0.1c-14.7-17.9-40.4-21.8-60-21.8c-74.6,0-137.8,62.2-137.8,151.5
	c0,65.3,36.8,105.9,96,105.9c27,0,57.4-15.6,75-38.3c9.5,34.1,40.6,34.1,70.7,34.1C462.6,379.4,504,307.8,504,232
	C504,95.7,394,8,256,8z M234.3,312.4c-22.2,0-36.1-15.6-36.1-40.8c0-45,30.8-72.7,58.6-72.7c22.3,0,35.6,15.2,35.6,40.8
	C292.5,284.8,258.6,312.4,234.3,312.4L234.3,312.4z"/>
</svg>
