<?xml version="1.0" encoding="utf-8"?>
<!-- Generator: Adobe Illustrator 24.0.2, SVG Export Plug-In . SVG Version: 6.00 Build 0)  -->
<svg version="1.2" baseProfile="tiny" id="Layer_1" focusable="false"
	 xmlns="http://www.w3.org/2000/svg" xmlns:xlink="http://www.w3.org/1999/xlink" x="0px" y="0px" viewBox="0 0 512 512"
	 xml:space="preserve">
<path fill="#0073BD" d="M496,448H16c-8.8,0-16,7.2-16,16v32c0,8.8,7.2,16,16,16h480c8.8,0,16-7.2,16-16v-32
	C512,455.2,504.8,448,496,448z M192,384l-64-32l64-32l32-64l32,64l64,32l-64,32l-16,32h208l-86.4-201.6c-6.2-14.4-6.9-30.6-1.9-45.4
	L416,0L228.4,107.2c-23.7,13.5-42.4,34.2-53.5,59.1L64,416h144L192,384z M256,160l16-32l16,32l32,16l-32,16l-16,32l-16-32l-32-16
	L256,160z"/>
</svg>
