<?xml version="1.0" encoding="utf-8"?>
<!-- Generator: Adobe Illustrator 24.0.2, SVG Export Plug-In . SVG Version: 6.00 Build 0)  -->
<svg version="1.2" baseProfile="tiny" id="Layer_1" focusable="false"
	 xmlns="http://www.w3.org/2000/svg" xmlns:xlink="http://www.w3.org/1999/xlink" x="0px" y="0px" viewBox="0 0 512 512"
	 xml:space="preserve">
<path fill="#0073BD" d="M224,96l16-32l32-16l-32-16L224,0l-16,32l-32,16l32,16L224,96z M80,160l26.7-53.3L160,80l-53.3-26.7L80,0
	L53.3,53.3L0,80l53.3,26.7L80,160z M432,288l-26.7,53.3L352,368l53.3,26.7L432,448l26.7-53.3L512,368l-53.3-26.7L432,288z
	 M502.6,94.2L417.8,9.4C411.5,3.1,403.3,0,395.1,0s-16.4,3.1-22.6,9.4L9.4,372.5c-12.5,12.5-12.5,32.8,0,45.3l84.8,84.9
	c6.3,6.3,14.4,9.4,22.6,9.4s16.4-3.1,22.6-9.4l363.1-363.1C515.1,127,515.1,106.7,502.6,94.2z M359.5,203.5l-50.9-50.9L395.1,66
	l50.9,50.9L359.5,203.5L359.5,203.5z"/>
</svg>
