<?xml version="1.0" encoding="utf-8"?>
<!-- Generator: Adobe Illustrator 24.0.2, SVG Export Plug-In . SVG Version: 6.00 Build 0)  -->
<svg version="1.2" baseProfile="tiny" id="Layer_1" focusable="false"
	 xmlns="http://www.w3.org/2000/svg" xmlns:xlink="http://www.w3.org/1999/xlink" x="0px" y="0px" viewBox="0 0 512 512"
	 xml:space="preserve">
<path fill="#999999" d="M285.4,207.5c0,18.6-9.8,28.4-28.4,28.4h-29.9v-56.1h23.4C279.1,179.8,285.4,188.5,285.4,207.5z M504,256
	c0,137-111,248-248,248S8,393,8,256S119,8,256,8S504,119,504,256z M363.4,360.4c-46.7-84.8-43.3-78.6-44.7-81
	c23.4-15.2,37.9-43,37.9-74.5c0-54.2-31.5-89.3-105.5-89.3h-70.7c-13.3,0-24,10.7-24,24V372c0,13.3,10.7,24,24,24h22.6
	c13.3,0,24-10.7,24-24v-71.7h25.6l44.1,82.9c4.2,7.8,12.3,12.7,21.2,12.7h24.5C360.7,396,372.2,376.4,363.4,360.4L363.4,360.4z"/>
</svg>
